<svg xmlns="http://www.w3.org/2000/svg" viewBox="0 0 1600 1200" width="1600" height="1200">
  <defs>
    <linearGradient id="bg-62" x1="0" y1="0" x2="0" y2="1">
      <stop offset="0" stop-color="#14120f" />
      <stop offset="1" stop-color="#1f1c17" />
    </linearGradient>
    <filter id="grain-62">
      <feTurbulence type="fractalNoise" baseFrequency="0.9" numOctaves="2" stitchTiles="stitch" result="noise" />
      <feColorMatrix in="noise" type="matrix" values="0 0 0 0 0  0 0 0 0 0  0 0 0 0 0  0 0 0 0.03 0" />
    </filter>
  </defs>
  <rect width="1600" height="1200" fill="url(#bg-62)" />
  <circle cx="1212.171761540776" cy="376.6993589590767" r="73.3764624611365" fill="none" stroke="#b7312f" stroke-width="1.5" opacity="0.5" />
  <path d="M53.759780871570015,1032 L53.759780871570015,433.02242652374434 A106.24021912842998,106.24021912842998 0 0 1 266.24021912843,433.02242652374434 L266.24021912843,1032" fill="none" stroke="#b7312f" stroke-width="2" opacity="0.09" /><path d="M398.9462013239722,1032 L398.9462013239722,532.7933971531659 A81.05379867602781,81.05379867602781 0 0 1 561.0537986760278,532.7933971531659 L561.0537986760278,1032" fill="none" stroke="#faf9f5" stroke-width="2" opacity="0.15" /><path d="M716.6068639739449,1032 L716.6068639739449,589.9390516197025 A83.39313602605515,83.39313602605515 0 0 1 883.3931360260551,589.9390516197025 L883.3931360260551,1032" fill="none" stroke="#faf9f5" stroke-width="2" opacity="0.14" /><path d="M1016.813934315375,1032 L1016.813934315375,452.51726524742185 A103.18606568462498,103.18606568462498 0 0 1 1223.186065684625,452.51726524742185 L1223.186065684625,1032" fill="none" stroke="#b7312f" stroke-width="2" opacity="0.13" /><path d="M1355.4389953592042,1032 L1355.4389953592042,439.3127211738903 A84.56100464079576,84.56100464079576 0 0 1 1524.5610046407958,439.3127211738903 L1524.5610046407958,1032" fill="none" stroke="#faf9f5" stroke-width="2" opacity="0.10" />
  <line x1="0" y1="1060" x2="1600" y2="1060" stroke="#faf9f5" stroke-width="1" opacity="0.15" />
  <text x="80" y="1110" font-family="Georgia, 'Shippori Mincho', serif" font-size="30" fill="#faf9f5" opacity="0.85">砂漠のモダニズム</text>
  <text x="80" y="1144" font-family="Helvetica, Arial, sans-serif" font-size="14" letter-spacing="4" fill="#b7312f">ARCHITECTURE &amp; TRAVEL</text>
  <rect width="1600" height="1200" filter="url(#grain-62)" opacity="0.6" />
</svg>